# xmcd
#
# Track frame offsets: 
#        150
#        11944
#        28672
#        40941
#        55452
#        72690
#        83591
#        96528
#        118548
#        134061
#        151481
#        169772
#        191691
#        208358
#        223106
#        235362
#        250582
#        268004
#        278165
#        298869
#
# Disc length: 4276 seconds
#
# Revision: 4
# Processed by: cddbd v1.5.2PL0 Copyright (c) Steve Scherf et al.
# Submitted via: ExactAudioCopy v0.99pb5
#
DISCID=4410b214
DTITLE=Various Artist - Pop Masters - Volume 4 - CD 1
DYEAR=2008
DGENRE=Pop
TTITLE0=Dion and The Belmonts - A teenager in love
TTITLE1=Culture Club - Time (clock of the heart)
TTITLE2=Beach Boys - California girls
TTITLE3=Maxine Nightingale - Right back where started from
TTITLE4=Kenny Rogers and Sheena Easton - We've got tonight
TTITLE5=Eddie Cochran - Three steps to heaven
TTITLE6=Dr. Hook - Sharing the night together
TTITLE7=Paula Abdul - Rush rush
TTITLE8=Robert John - Sad eyes
TTITLE9=Fra Lippo Lippi - Shouldn't have to be like that
TTITLE10=George Baker Selection - Little green bag
TTITLE11=ABC - Love conquers all
TTITLE12=Maria Vidal - Body rock
TTITLE13=Tavares - More than a woman
TTITLE14=Seekers - A world of our own
TTITLE15=Mitch Ryder and The Detroit Wheels - Jenny take a ride!
TTITLE16=Hot Chocolate - Emma
TTITLE17=Bobby Vee - Run to him
TTITLE18=Band - The weight
TTITLE19=Roxy Music - Jealous guy
EXTD=
EXTT0=
EXTT1=
EXTT2=
EXTT3=
EXTT4=
EXTT5=
EXTT6=
EXTT7=
EXTT8=
EXTT9=
EXTT10=
EXTT11=
EXTT12=
EXTT13=
EXTT14=
EXTT15=
EXTT16=
EXTT17=
EXTT18=
EXTT19=
PLAYORDER=
